<svg width="20" height="21" viewBox="0 0 20 21" fill="none" xmlns="http://www.w3.org/2000/svg">
<g id="ant-design:setting-outlined">
<path id="Vector" d="M18.0625 12.6818L16.7832 11.588C16.8438 11.2169 16.875 10.838 16.875 10.4591C16.875 10.0802 16.8438 9.70132 16.7832 9.33023L18.0625 8.23648C18.159 8.15388 18.2281 8.04386 18.2605 7.92105C18.2929 7.79824 18.2872 7.66847 18.2441 7.54898L18.2266 7.4982C17.8744 6.51388 17.347 5.60139 16.6699 4.80484L16.6348 4.76382C16.5526 4.66725 16.4432 4.59782 16.3208 4.5647C16.1984 4.53158 16.0689 4.53631 15.9492 4.57828L14.3613 5.14273C13.7754 4.66226 13.1211 4.28336 12.4141 4.01773L12.1074 2.35757C12.0843 2.23266 12.0237 2.11774 11.9337 2.02808C11.8437 1.93842 11.7285 1.87827 11.6035 1.85562L11.5508 1.84586C10.5332 1.66226 9.46289 1.66226 8.44532 1.84586L8.39258 1.85562C8.26758 1.87827 8.15242 1.93842 8.06241 2.02808C7.97241 2.11774 7.91181 2.23266 7.88868 2.35757L7.58008 4.02554C6.87869 4.29122 6.22552 4.66993 5.64649 5.14664L4.04688 4.57828C3.92728 4.53598 3.79764 4.53107 3.67519 4.56421C3.55274 4.59736 3.44327 4.66698 3.36133 4.76382L3.32618 4.80484C2.6499 5.60196 2.12261 6.51429 1.76954 7.4982L1.75196 7.54898C1.66407 7.79312 1.73633 8.06656 1.9336 8.23648L3.22852 9.34195C3.16797 9.70914 3.13868 10.0841 3.13868 10.4572C3.13868 10.8322 3.16797 11.2072 3.22852 11.5724L1.9336 12.6779C1.8371 12.7605 1.76804 12.8705 1.7356 12.9933C1.70315 13.1161 1.70886 13.2459 1.75196 13.3654L1.76954 13.4162C2.12305 14.4005 2.64649 15.3087 3.32618 16.1095L3.36133 16.1505C3.44347 16.2471 3.55294 16.3165 3.67532 16.3497C3.7977 16.3828 3.92724 16.3781 4.04688 16.3361L5.64649 15.7677C6.22852 16.2462 6.87891 16.6252 7.58008 16.8888L7.88868 18.5568C7.91181 18.6817 7.97241 18.7966 8.06241 18.8863C8.15242 18.9759 8.26758 19.0361 8.39258 19.0587L8.44532 19.0685C9.47224 19.2531 10.5239 19.2531 11.5508 19.0685L11.6035 19.0587C11.7285 19.0361 11.8437 18.9759 11.9337 18.8863C12.0237 18.7966 12.0843 18.6817 12.1074 18.5568L12.4141 16.8966C13.1208 16.6317 13.7788 16.2516 14.3613 15.7716L15.9492 16.3361C16.0688 16.3784 16.1985 16.3833 16.3209 16.3502C16.4434 16.317 16.5528 16.2474 16.6348 16.1505L16.6699 16.1095C17.3496 15.3068 17.8731 14.4005 18.2266 13.4162L18.2441 13.3654C18.332 13.1252 18.2598 12.8517 18.0625 12.6818ZM15.3965 9.5607C15.4453 9.85562 15.4707 10.1584 15.4707 10.4611C15.4707 10.7638 15.4453 11.0666 15.3965 11.3615L15.2676 12.1447L16.7266 13.3927C16.5054 13.9023 16.2262 14.3846 15.8945 14.8302L14.082 14.1877L13.4688 14.6916C13.002 15.0744 12.4824 15.3752 11.9199 15.5861L11.1758 15.8654L10.8262 17.7599C10.2746 17.8224 9.71764 17.8224 9.16602 17.7599L8.81641 15.8615L8.07813 15.5783C7.52149 15.3673 7.00391 15.0666 6.54102 14.6857L5.92774 14.1798L4.10352 14.8283C3.77149 14.381 3.49414 13.8986 3.27149 13.3908L4.7461 12.131L4.61914 11.3498C4.57227 11.0587 4.54688 10.758 4.54688 10.4611C4.54688 10.1623 4.57032 9.86343 4.61914 9.57242L4.7461 8.79117L3.27149 7.5314C3.49219 7.02164 3.77149 6.54117 4.10352 6.0939L5.92774 6.74234L6.54102 6.23648C7.00391 5.85562 7.52149 5.55484 8.07813 5.3439L8.81836 5.06461L9.16797 3.16617C9.7168 3.10367 10.2773 3.10367 10.8281 3.16617L11.1777 5.0607L11.9219 5.34C12.4824 5.55093 13.0039 5.85172 13.4707 6.23453L14.084 6.73843L15.8965 6.09586C16.2285 6.54312 16.5059 7.02554 16.7285 7.53336L15.2695 8.7814L15.3965 9.5607ZM10 6.82828C8.10157 6.82828 6.5625 8.36734 6.5625 10.2658C6.5625 12.1642 8.10157 13.7033 10 13.7033C11.8984 13.7033 13.4375 12.1642 13.4375 10.2658C13.4375 8.36734 11.8984 6.82828 10 6.82828ZM11.5469 11.8127C11.344 12.0161 11.1029 12.1775 10.8374 12.2874C10.5719 12.3974 10.2873 12.4537 10 12.4533C9.41602 12.4533 8.86719 12.2248 8.45313 11.8127C8.24966 11.6098 8.08831 11.3687 7.97837 11.1032C7.86843 10.8377 7.81206 10.5531 7.8125 10.2658C7.8125 9.68179 8.04102 9.13296 8.45313 8.7189C8.86719 8.30484 9.41602 8.07828 10 8.07828C10.584 8.07828 11.1328 8.30484 11.5469 8.7189C11.7503 8.92179 11.9117 9.1629 12.0216 9.42838C12.1316 9.69385 12.188 9.97844 12.1875 10.2658C12.1875 10.8498 11.959 11.3986 11.5469 11.8127Z" fill="black"/>
</g>
</svg>
