<svg xmlns="http://www.w3.org/2000/svg" width="25" height="24" viewBox="0 0 25 24" fill="none">
<g clip-path="url(#clip0_1397_28833)">
<path d="M12.6038 2C7.08376 2 2.60376 6.48 2.60376 12C2.60376 17.52 7.08376 22 12.6038 22C18.1238 22 22.6038 17.52 22.6038 12C22.6038 6.48 18.1238 2 12.6038 2ZM9.89376 16.29L6.30376 12.7C5.91376 12.31 5.91376 11.68 6.30376 11.29C6.69376 10.9 7.32376 10.9 7.71376 11.29L10.6038 14.17L17.4838 7.29C17.8738 6.9 18.5038 6.9 18.8938 7.29C19.2838 7.68 19.2838 8.31 18.8938 8.7L11.3038 16.29C10.9238 16.68 10.2838 16.68 9.89376 16.29Z" fill="#05CD99"/>
</g>
<defs>
<clipPath id="clip0_1397_28833">
<rect width="24" height="24" fill="white" transform="translate(0.60376)"/>
</clipPath>
</defs>
</svg>