<svg xmlns="http://www.w3.org/2000/svg" width="21" height="20" viewBox="0 0 21 20" fill="none">
<path d="M7.00016 11.6667C6.76405 11.6667 6.56627 11.5867 6.40683 11.4267C6.24739 11.2667 6.16739 11.069 6.16683 10.8334C6.16683 10.5973 6.24683 10.3995 6.40683 10.2401C6.56683 10.0806 6.76461 10.0006 7.00016 10.0001C7.23627 10.0001 7.43433 10.0801 7.59433 10.2401C7.75433 10.4001 7.83405 10.5979 7.8335 10.8334C7.8335 11.0695 7.7535 11.2676 7.5935 11.4276C7.4335 11.5876 7.23572 11.6673 7.00016 11.6667ZM10.3335 11.6667C10.0974 11.6667 9.89961 11.5867 9.74016 11.4267C9.58072 11.2667 9.50072 11.069 9.50016 10.8334C9.50016 10.5973 9.58016 10.3995 9.74016 10.2401C9.90016 10.0806 10.0979 10.0006 10.3335 10.0001C10.5696 10.0001 10.7677 10.0801 10.9277 10.2401C11.0877 10.4001 11.1674 10.5979 11.1668 10.8334C11.1668 11.0695 11.0868 11.2676 10.9268 11.4276C10.7668 11.5876 10.5691 11.6673 10.3335 11.6667ZM13.6668 11.6667C13.4307 11.6667 13.2329 11.5867 13.0735 11.4267C12.9141 11.2667 12.8341 11.069 12.8335 10.8334C12.8335 10.5973 12.9135 10.3995 13.0735 10.2401C13.2335 10.0806 13.4313 10.0006 13.6668 10.0001C13.9029 10.0001 14.101 10.0801 14.261 10.2401C14.421 10.4001 14.5007 10.5979 14.5002 10.8334C14.5002 11.0695 14.4202 11.2676 14.2602 11.4276C14.1002 11.5876 13.9024 11.6673 13.6668 11.6667ZM4.50016 18.3334C4.04183 18.3334 3.64961 18.1704 3.3235 17.8442C2.99739 17.5181 2.83405 17.1256 2.8335 16.6667V5.00008C2.8335 4.54175 2.99683 4.14953 3.3235 3.82341C3.65016 3.4973 4.04238 3.33397 4.50016 3.33341H5.3335V1.66675H7.00016V3.33341H13.6668V1.66675H15.3335V3.33341H16.1668C16.6252 3.33341 17.0177 3.49675 17.3443 3.82341C17.671 4.15008 17.8341 4.5423 17.8335 5.00008V16.6667C17.8335 17.1251 17.6704 17.5176 17.3443 17.8442C17.0182 18.1709 16.6257 18.334 16.1668 18.3334H4.50016ZM4.50016 16.6667H16.1668V8.33341H4.50016V16.6667ZM4.50016 6.66675H16.1668V5.00008H4.50016V6.66675Z" fill="black" fill-opacity="0.8"/>
</svg>