<svg width="20" height="21" viewBox="0 0 20 21" fill="none" xmlns="http://www.w3.org/2000/svg">
<g id="carbon:cloud-data-ops" clip-path="url(#clip0_1612_154)">
<path id="Vector" d="M17.5001 11.7111H18.7501V17.9611H17.5001V11.7111ZM15.0001 9.21108H16.2501V17.9611H15.0001V9.21108ZM12.5001 14.2111H13.7501V17.9611H12.5001V14.2111ZM13.8595 6.71108L14.8501 5.91983C13.929 4.76835 12.6288 3.98157 11.1813 3.69983C10.3748 3.54406 9.54545 3.54876 8.74072 3.71367C7.93599 3.87858 7.17164 4.20046 6.49137 4.66092C5.8111 5.12138 5.22824 5.71139 4.77611 6.39723C4.32398 7.08306 4.01143 7.85127 3.85635 8.65796C2.67778 8.87079 1.62526 9.52636 0.914539 10.4903C0.203814 11.4542 -0.111279 12.6535 0.0338491 13.8423C0.199905 14.9976 0.781012 16.0529 1.66855 16.8109C2.55608 17.569 3.68929 17.9778 4.85635 17.9611H10.0001V16.7111H4.80947C3.99079 16.724 3.19321 16.4511 2.55405 15.9393C1.91488 15.4276 1.47411 14.709 1.3076 13.9073C1.22424 13.4614 1.2299 13.0033 1.32423 12.5595C1.41857 12.1158 1.59973 11.695 1.85729 11.3215C2.11485 10.948 2.44372 10.6291 2.82498 10.3832C3.20625 10.1373 3.63237 9.96919 4.07885 9.88858L4.92197 9.73546L5.05572 9.04171C5.2435 7.99936 5.74936 7.04071 6.50385 6.29742C7.25834 5.55412 8.22444 5.06263 9.26947 4.89046C9.89684 4.79733 10.5362 4.8249 11.1532 4.97171C12.2261 5.22876 13.1801 5.84192 13.8595 6.71108Z" fill="black"/>
</g>
<defs>
<clipPath id="clip0_1612_154">
<rect width="20" height="20" fill="white" transform="translate(0 0.46109)"/>
</clipPath>
</defs>
</svg>
