<svg width="20" height="21" viewBox="0 0 20 21" fill="none" xmlns="http://www.w3.org/2000/svg">
<g id="dashicons:money-alt">
<path id="Vector" d="M10.6 9.46106C10.2 9.36106 9.8 9.16106 9.5 8.86106C9.2 8.76106 9.1 8.46106 9.1 8.26106C9.1 8.06106 9.2 7.76106 9.4 7.66106C9.7 7.46106 10 7.26106 10.3 7.36106C10.9 7.36106 11.4 7.66106 11.7 8.06106L12.6 6.86106C12.3 6.56106 12 6.36106 11.7 6.16106C11.4 5.96106 11 5.86106 10.6 5.86106V4.46106H9.4V5.86106C8.9 5.96106 8.4 6.26106 8 6.66106C7.6 7.16106 7.3 7.76106 7.4 8.36106C7.4 8.96106 7.6 9.56106 8 9.96106C8.5 10.4611 9.2 10.7611 9.8 11.0611C10.1 11.1611 10.5 11.3611 10.8 11.5611C11 11.7611 11.1 12.0611 11.1 12.3611C11.1 12.6611 11 12.9611 10.8 13.2611C10.5 13.5611 10.1 13.6611 9.8 13.6611C9.4 13.6611 8.9 13.5611 8.6 13.2611C8.3 13.0611 8 12.7611 7.8 12.4611L6.8 13.5611C7.1 13.9611 7.4 14.2611 7.8 14.5611C8.3 14.8611 8.9 15.1611 9.5 15.1611V16.4611H10.6V14.9611C11.2 14.8611 11.7 14.5611 12.1 14.1611C12.6 13.6611 12.9 12.8611 12.9 12.1611C12.9 11.5611 12.7 10.8611 12.2 10.4611C11.7 9.96106 11.2 9.66106 10.6 9.46106ZM10 2.46106C5.6 2.46106 2 6.06106 2 10.4611C2 14.8611 5.6 18.4611 10 18.4611C14.4 18.4611 18 14.8611 18 10.4611C18 6.06106 14.4 2.46106 10 2.46106ZM10 17.3611C6.2 17.3611 3.1 14.2611 3.1 10.4611C3.1 6.66106 6.2 3.56106 10 3.56106C13.8 3.56106 16.9 6.66106 16.9 10.4611C16.9 14.2611 13.8 17.3611 10 17.3611Z" fill="black"/>
</g>
</svg>
