<svg width="20" height="21" viewBox="0 0 20 21" fill="none" xmlns="http://www.w3.org/2000/svg">
<g id="fluent:receipt-money-20-regular">
<path id="Vector" d="M4 5.46109C4 4.93066 4.21071 4.42195 4.58579 4.04688C4.96086 3.6718 5.46957 3.46109 6 3.46109H13C13.5304 3.46109 14.0391 3.6718 14.4142 4.04688C14.7893 4.42195 15 4.93066 15 5.46109V12.4611H18V14.4611C18 15.2567 17.6839 16.0198 17.1213 16.5824C16.5587 17.145 15.7956 17.4611 15 17.4611H10.95C10.983 17.2991 11 17.1321 11 16.9611V16.4611H14V5.46109C14 5.19587 13.8946 4.94152 13.7071 4.75398C13.5196 4.56645 13.2652 4.46109 13 4.46109H6C5.73478 4.46109 5.48043 4.56645 5.29289 4.75398C5.10536 4.94152 5 5.19587 5 5.46109V11.4611H4V5.46109ZM17 13.4611H15V16.4611C15.5304 16.4611 16.0391 16.2504 16.4142 15.8753C16.7893 15.5002 17 14.9915 17 14.4611V13.4611ZM7 6.96109C7 6.82848 7.05268 6.7013 7.14645 6.60754C7.24021 6.51377 7.36739 6.46109 7.5 6.46109H11.5C11.6326 6.46109 11.7598 6.51377 11.8536 6.60754C11.9473 6.7013 12 6.82848 12 6.96109C12 7.0937 11.9473 7.22088 11.8536 7.31464C11.7598 7.40841 11.6326 7.46109 11.5 7.46109H7.5C7.36739 7.46109 7.24021 7.40841 7.14645 7.31464C7.05268 7.22088 7 7.0937 7 6.96109ZM7 9.96109C7 9.82848 7.05268 9.7013 7.14645 9.60754C7.24021 9.51377 7.36739 9.46109 7.5 9.46109H11.5C11.6326 9.46109 11.7598 9.51377 11.8536 9.60754C11.9473 9.7013 12 9.82848 12 9.96109C12 10.0937 11.9473 10.2209 11.8536 10.3146C11.7598 10.4084 11.6326 10.4611 11.5 10.4611H7.5C7.36739 10.4611 7.24021 10.4084 7.14645 10.3146C7.05268 10.2209 7 10.0937 7 9.96109ZM10 13.9611C10 13.5633 9.84196 13.1817 9.56066 12.9004C9.27936 12.6191 8.89782 12.4611 8.5 12.4611H2.5C2.10218 12.4611 1.72064 12.6191 1.43934 12.9004C1.15804 13.1817 1 13.5633 1 13.9611V16.9611C1 17.3589 1.15804 17.7404 1.43934 18.0217C1.72064 18.3031 2.10218 18.4611 2.5 18.4611H8.5C8.89782 18.4611 9.27936 18.3031 9.56066 18.0217C9.84196 17.7404 10 17.3589 10 16.9611V13.9611ZM9 15.9611V16.9611C8.86739 16.9611 8.74021 17.0138 8.64645 17.1075C8.55268 17.2013 8.5 17.3285 8.5 17.4611H7.5C7.5 17.0633 7.65804 16.6817 7.93934 16.4004C8.22064 16.1191 8.60218 15.9611 9 15.9611ZM8.5 13.4611C8.5 13.5937 8.55268 13.7209 8.64645 13.8146C8.74021 13.9084 8.86739 13.9611 9 13.9611V14.9611C8.60218 14.9611 8.22064 14.8031 7.93934 14.5218C7.65804 14.2404 7.5 13.8589 7.5 13.4611H8.5ZM2 13.9611C2.13261 13.9611 2.25979 13.9084 2.35355 13.8146C2.44732 13.7209 2.5 13.5937 2.5 13.4611H3.5C3.5 13.8589 3.34196 14.2404 3.06066 14.5218C2.77936 14.8031 2.39782 14.9611 2 14.9611V13.9611ZM2.5 17.4611C2.5 17.3285 2.44732 17.2013 2.35355 17.1075C2.25979 17.0138 2.13261 16.9611 2 16.9611V15.9611C2.39782 15.9611 2.77936 16.1191 3.06066 16.4004C3.34196 16.6817 3.5 17.0633 3.5 17.4611H2.5ZM4 15.4611C4 15.2641 4.0388 15.0691 4.11418 14.8871C4.18956 14.7051 4.30005 14.5397 4.43934 14.4004C4.57863 14.2611 4.74399 14.1507 4.92597 14.0753C5.10796 13.9999 5.30302 13.9611 5.5 13.9611C5.69698 13.9611 5.89204 13.9999 6.07403 14.0753C6.25601 14.1507 6.42137 14.2611 6.56066 14.4004C6.69995 14.5397 6.81044 14.7051 6.88582 14.8871C6.9612 15.0691 7 15.2641 7 15.4611C7 15.8589 6.84196 16.2404 6.56066 16.5217C6.27936 16.8031 5.89782 16.9611 5.5 16.9611C5.10218 16.9611 4.72064 16.8031 4.43934 16.5217C4.15804 16.2404 4 15.8589 4 15.4611Z" fill="black"/>
</g>
</svg>
