<svg xmlns="http://www.w3.org/2000/svg" width="25" height="24" viewBox="0 0 25 24" fill="none">
<path fill-rule="evenodd" clip-rule="evenodd" d="M12.6864 3C10.4279 3 8.37036 3.746 7.15286 4.3555C7.04286 4.4105 6.94036 4.4645 6.84486 4.5165C6.65586 4.6195 6.49486 4.7155 6.36686 4.8L7.75186 6.839L8.40386 7.0985C10.9519 8.384 14.3689 8.384 16.9174 7.0985L17.6574 6.7145L18.9669 4.8C18.6956 4.62303 18.4136 4.46322 18.1224 4.3215C16.9109 3.7185 14.9024 3 12.6869 3M9.46586 5.308C8.97542 5.21623 8.49102 5.09467 8.01536 4.944C9.15586 4.4375 10.8554 3.9 12.6869 3.9C13.9554 3.9 15.1549 4.158 16.1469 4.485C14.9844 4.6485 13.7439 4.926 12.5619 5.2675C11.6319 5.5365 10.5449 5.5075 9.46586 5.308ZM17.4459 7.84L17.3229 7.902C14.5199 9.316 10.8019 9.316 7.99886 7.902L7.88236 7.843C3.67086 12.4635 0.455861 20.9985 12.6864 20.9985C24.9169 20.9985 21.6239 12.305 17.4459 7.84ZM12.1669 12C11.9016 12 11.6473 12.1054 11.4598 12.2929C11.2722 12.4804 11.1669 12.7348 11.1669 13C11.1669 13.2652 11.2722 13.5196 11.4598 13.7071C11.6473 13.8946 11.9016 14 12.1669 14V12ZM13.1669 11V10.5H12.1669V11C11.6364 11 11.1277 11.2107 10.7526 11.5858C10.3776 11.9609 10.1669 12.4696 10.1669 13C10.1669 13.5304 10.3776 14.0391 10.7526 14.4142C11.1277 14.7893 11.6364 15 12.1669 15V17C11.7319 17 11.3614 16.7225 11.2234 16.3335C11.2029 16.2699 11.1699 16.211 11.1262 16.1603C11.0826 16.1097 11.0292 16.0683 10.9693 16.0386C10.9094 16.0089 10.8442 15.9916 10.7775 15.9875C10.7107 15.9835 10.6439 15.9929 10.5808 16.0152C10.5178 16.0375 10.4599 16.0721 10.4105 16.1172C10.3611 16.1622 10.3212 16.2167 10.2932 16.2775C10.2653 16.3382 10.2498 16.4039 10.2476 16.4707C10.2455 16.5376 10.2568 16.6041 10.2809 16.6665C10.4188 17.0565 10.6742 17.3941 11.012 17.6329C11.3497 17.8718 11.7532 18 12.1669 18V18.5H13.1669V18C13.6973 18 14.206 17.7893 14.5811 17.4142C14.9561 17.0391 15.1669 16.5304 15.1669 16C15.1669 15.4696 14.9561 14.9609 14.5811 14.5858C14.206 14.2107 13.6973 14 13.1669 14V12C13.6019 12 13.9724 12.2775 14.1104 12.6665C14.1308 12.7301 14.1639 12.789 14.2075 12.8397C14.2511 12.8903 14.3045 12.9317 14.3644 12.9614C14.4243 12.9911 14.4895 13.0084 14.5563 13.0125C14.623 13.0165 14.6899 13.0071 14.7529 12.9848C14.8159 12.9625 14.8739 12.9279 14.9233 12.8828C14.9727 12.8378 15.0125 12.7833 15.0405 12.7225C15.0685 12.6618 15.084 12.5961 15.0861 12.5293C15.0882 12.4624 15.0769 12.3959 15.0529 12.3335C14.9149 11.9435 14.6595 11.6059 14.3218 11.3671C13.984 11.1282 13.5805 11 13.1669 11ZM13.1669 15V17C13.4321 17 13.6864 16.8946 13.874 16.7071C14.0615 16.5196 14.1669 16.2652 14.1669 16C14.1669 15.7348 14.0615 15.4804 13.874 15.2929C13.6864 15.1054 13.4321 15 13.1669 15Z" fill="white"/>
</svg>