<svg xmlns="http://www.w3.org/2000/svg" width="25" height="24" viewBox="0 0 25 24" fill="none">
<path d="M22.3325 8C22.3326 7.81852 22.2832 7.64045 22.1895 7.485L19.4805 2.97C19.3021 2.67484 19.0506 2.43057 18.7505 2.26069C18.4503 2.09081 18.1114 2.00104 17.7665 2H6.89852C6.20052 2 5.54352 2.372 5.18452 2.971L2.47552 7.485C2.38187 7.64045 2.33243 7.81852 2.33252 8C2.33252 9.005 2.71852 9.914 3.33252 10.618V20C3.33252 20.2652 3.43788 20.5196 3.62541 20.7071C3.81295 20.8946 4.0673 21 4.33252 21H12.3325C12.5977 21 12.8521 20.8946 13.0396 20.7071C13.2272 20.5196 13.3325 20.2652 13.3325 20V15H17.3325V20C17.3325 20.2652 17.4379 20.5196 17.6254 20.7071C17.8129 20.8946 18.0673 21 18.3325 21H20.3325C20.5977 21 20.8521 20.8946 21.0396 20.7071C21.2272 20.5196 21.3325 20.2652 21.3325 20V10.618C21.9465 9.914 22.3325 9.005 22.3325 8ZM20.3165 8.251C20.255 8.73391 20.0196 9.17785 19.6545 9.49977C19.2893 9.82169 18.8193 9.99953 18.3325 10C17.2295 10 16.3325 9.103 16.3325 8C16.3325 7.932 16.3075 7.872 16.2935 7.808L16.3135 7.804L15.5525 4H17.7665L20.3165 8.251ZM10.3395 8.065L11.1515 4H13.5125L14.3255 8.065C14.2905 9.138 13.4125 10 12.3325 10C11.2525 10 10.3745 9.138 10.3395 8.065ZM6.89852 4H9.11252L8.35252 7.804L8.37252 7.808C8.35752 7.872 8.33252 7.932 8.33252 8C8.33252 9.103 7.43552 10 6.33252 10C5.84571 9.99953 5.37575 9.82169 5.01058 9.49977C4.64541 9.17785 4.41004 8.73391 4.34852 8.251L6.89852 4ZM10.3325 16H6.33252V13H10.3325V16Z" fill="white"/>
</svg>