<svg width="20" height="21" viewBox="0 0 20 21" fill="none" xmlns="http://www.w3.org/2000/svg">
<g id="iconamoon:home-light">
<path id="Vector" d="M16.4583 8.79442C16.4583 8.62866 16.3925 8.46969 16.2752 8.35248C16.158 8.23527 15.9991 8.16942 15.8333 8.16942C15.6675 8.16942 15.5086 8.23527 15.3914 8.35248C15.2741 8.46969 15.2083 8.62866 15.2083 8.79442H16.4583ZM4.79163 8.79442C4.79163 8.62866 4.72578 8.46969 4.60857 8.35248C4.49136 8.23527 4.33239 8.16942 4.16663 8.16942C4.00087 8.16942 3.8419 8.23527 3.72469 8.35248C3.60748 8.46969 3.54163 8.62866 3.54163 8.79442H4.79163ZM17.0583 10.9028C17.1155 10.9642 17.1845 11.0134 17.2612 11.0476C17.3379 11.0817 17.4206 11.1001 17.5045 11.1016C17.5885 11.1031 17.6718 11.0876 17.7496 11.0562C17.8275 11.0248 17.8981 10.978 17.9575 10.9186C18.0168 10.8593 18.0636 10.7886 18.0951 10.7108C18.1265 10.6329 18.1419 10.5496 18.1405 10.4657C18.139 10.3817 18.1206 10.299 18.0865 10.2223C18.0523 10.1456 18.003 10.0766 17.9416 10.0194L17.0583 10.9028ZM9.99997 2.96109L10.4416 2.51942C10.3244 2.40238 10.1656 2.33664 9.99997 2.33664C9.83434 2.33664 9.67549 2.40238 9.5583 2.51942L9.99997 2.96109ZM2.0583 10.0194C1.99689 10.0766 1.94764 10.1456 1.91348 10.2223C1.87932 10.299 1.86095 10.3817 1.85947 10.4657C1.85799 10.5496 1.87343 10.6329 1.90486 10.7108C1.9363 10.7886 1.98308 10.8593 2.04243 10.9186C2.10178 10.978 2.17248 11.0248 2.2503 11.0562C2.32812 11.0876 2.41148 11.1031 2.4954 11.1016C2.57932 11.1001 2.66208 11.0817 2.73875 11.0476C2.81541 11.0134 2.88441 10.9642 2.94163 10.9028L2.0583 10.0194ZM5.8333 18.5861H14.1666V17.3361H5.8333V18.5861ZM16.4583 16.2944V8.79442H15.2083V16.2944H16.4583ZM4.79163 16.2944V8.79442H3.54163V16.2944H4.79163ZM17.9416 10.0194L10.4416 2.51942L9.5583 3.40276L17.0583 10.9028L17.9416 10.0194ZM9.5583 2.51942L2.0583 10.0194L2.94163 10.9028L10.4416 3.40276L9.5583 2.51942ZM14.1666 18.5861C14.7744 18.5861 15.3573 18.3446 15.7871 17.9149C16.2169 17.4851 16.4583 16.9022 16.4583 16.2944H15.2083C15.2083 16.8694 14.7416 17.3361 14.1666 17.3361V18.5861ZM5.8333 17.3361C5.2583 17.3361 4.79163 16.8694 4.79163 16.2944H3.54163C3.54163 16.9022 3.78307 17.4851 4.21285 17.9149C4.64262 18.3446 5.22551 18.5861 5.8333 18.5861V17.3361Z" fill="black"/>
</g>
</svg>
