<svg width="24" height="25" viewBox="0 0 24 25" fill="none" xmlns="http://www.w3.org/2000/svg">
<path fill-rule="evenodd" clip-rule="evenodd" d="M7.68 9.37036H15.7888C18.0477 9.37036 19.8792 11.2396 19.8792 13.545V18.4819C19.8792 20.7873 18.0477 22.6565 15.7888 22.6565H7.68C5.42108 22.6565 3.5896 20.7873 3.5896 18.4819V13.545C3.5896 11.2396 5.42108 9.37036 7.68 9.37036ZM11.7295 17.986C12.2066 17.986 12.5863 17.5984 12.5863 17.1115V14.9054C12.5863 14.4284 12.2066 14.0409 11.7295 14.0409C11.2621 14.0409 10.8824 14.4284 10.8824 14.9054V17.1115C10.8824 17.5984 11.2621 17.986 11.7295 17.986Z" fill="url(#paint0_linear_1385_2781)"/>
<path opacity="0.4" d="M17.0264 8.05248V9.5232C16.6856 9.42382 16.3254 9.37414 15.9554 9.37414H15.3225V8.05248C15.3225 6.03521 13.7159 4.39555 11.7393 4.39555C9.76279 4.39555 8.15623 6.02527 8.14649 8.0326V9.37414H7.52334C7.14361 9.37414 6.78335 9.42382 6.44257 9.53313V8.05248C6.4523 5.07129 8.81833 2.65652 11.7199 2.65652C14.6604 2.65652 17.0264 5.07129 17.0264 8.05248Z" fill="url(#paint1_linear_1385_2781)"/>
<defs>
<linearGradient id="paint0_linear_1385_2781" x1="3.5896" y1="22.6565" x2="19.8792" y2="22.6565" gradientUnits="userSpaceOnUse">
<stop stop-color="#E64422"/>
<stop offset="1" stop-color="#F47221"/>
</linearGradient>
<linearGradient id="paint1_linear_1385_2781" x1="6.44257" y1="9.53313" x2="17.0264" y2="9.53313" gradientUnits="userSpaceOnUse">
<stop stop-color="#E64422"/>
<stop offset="1" stop-color="#F47221"/>
</linearGradient>
</defs>
</svg>
