<svg width="20" height="21" viewBox="0 0 20 21" fill="none" xmlns="http://www.w3.org/2000/svg">
<g id="pepicons-pencil:file">
<g id="Group">
<path id="Vector" d="M6.5 12.4611C6.36739 12.4611 6.24021 12.4084 6.14645 12.3146C6.05268 12.2209 6 12.0937 6 11.9611C6 11.8285 6.05268 11.7013 6.14645 11.6075C6.24021 11.5138 6.36739 11.4611 6.5 11.4611H13.5C13.6326 11.4611 13.7598 11.5138 13.8536 11.6075C13.9473 11.7013 14 11.8285 14 11.9611C14 12.0937 13.9473 12.2209 13.8536 12.3146C13.7598 12.4084 13.6326 12.4611 13.5 12.4611H6.5ZM6.5 15.4611C6.36739 15.4611 6.24021 15.4084 6.14645 15.3146C6.05268 15.2209 6 15.0937 6 14.9611C6 14.8285 6.05268 14.7013 6.14645 14.6075C6.24021 14.5138 6.36739 14.4611 6.5 14.4611H13.5C13.6326 14.4611 13.7598 14.5138 13.8536 14.6075C13.9473 14.7013 14 14.8285 14 14.9611C14 15.0937 13.9473 15.2209 13.8536 15.3146C13.7598 15.4084 13.6326 15.4611 13.5 15.4611H6.5Z" fill="black"/>
<path id="Vector_2" fill-rule="evenodd" clip-rule="evenodd" d="M11.185 1.46109H4.5C4.10218 1.46109 3.72064 1.61913 3.43934 1.90043C3.15804 2.18173 3 2.56327 3 2.96109V17.9611C3 18.3589 3.15804 18.7404 3.43934 19.0217C3.72064 19.3031 4.10218 19.4611 4.5 19.4611H15.5C15.8978 19.4611 16.2794 19.3031 16.5607 19.0217C16.842 18.7404 17 18.3589 17 17.9611V7.66309C16.9999 7.28756 16.859 6.92573 16.605 6.64909L12.291 1.94709C12.1504 1.79384 11.9795 1.67149 11.7891 1.58782C11.5987 1.50416 11.393 1.461 11.185 1.46109ZM4 2.96109C4 2.82848 4.05268 2.70131 4.14645 2.60754C4.24021 2.51377 4.36739 2.46109 4.5 2.46109H11.185C11.2544 2.46101 11.323 2.47538 11.3865 2.50327C11.4501 2.53116 11.5071 2.57196 11.554 2.62309L15.868 7.32509C15.9528 7.41725 15.9999 7.53787 16 7.66309V17.9611C16 18.0937 15.9473 18.2209 15.8536 18.3146C15.7598 18.4084 15.6326 18.4611 15.5 18.4611H4.5C4.36739 18.4611 4.24021 18.4084 4.14645 18.3146C4.05268 18.2209 4 18.0937 4 17.9611V2.96109Z" fill="black"/>
<path id="Vector_3" d="M11 7.46109H16.5C16.6326 7.46109 16.7598 7.51377 16.8536 7.60754C16.9473 7.7013 17 7.82848 17 7.96109C17 8.0937 16.9473 8.22088 16.8536 8.31464C16.7598 8.40841 16.6326 8.46109 16.5 8.46109H10.5C10.3674 8.46109 10.2402 8.40841 10.1464 8.31464C10.0527 8.22088 10 8.0937 10 7.96109V1.96109C10 1.82848 10.0527 1.7013 10.1464 1.60754C10.2402 1.51377 10.3674 1.46109 10.5 1.46109C10.6326 1.46109 10.7598 1.51377 10.8536 1.60754C10.9473 1.7013 11 1.82848 11 1.96109V7.46109Z" fill="black"/>
</g>
</g>
</svg>
