<svg width="24" height="24" viewBox="0 0 24 24" fill="none" xmlns="http://www.w3.org/2000/svg">
<g id="radix-icons:update">
<path id="Vector" fill-rule="evenodd" clip-rule="evenodd" d="M3.04489 11.6752C3.04489 16.5456 6.57609 19.864 10.5425 20.5504C10.6504 20.5691 10.7535 20.6089 10.8461 20.6674C10.9386 20.726 11.0187 20.8022 11.0817 20.8917C11.1448 20.9812 11.1896 21.0823 11.2136 21.1891C11.2377 21.296 11.2404 21.4065 11.2217 21.5144C11.203 21.6223 11.1632 21.7254 11.1047 21.818C11.0461 21.9105 10.9699 21.9906 10.8804 22.0537C10.7908 22.1167 10.6898 22.1615 10.5829 22.1856C10.4761 22.2096 10.3656 22.2123 10.2577 22.1936C5.60009 21.3872 1.37769 17.4608 1.37769 11.6752C1.37769 9.216 2.49609 7.2832 3.80169 5.8144C4.73769 4.7616 5.80809 3.9056 6.66889 3.2512H4.05129C3.83911 3.2512 3.63563 3.16691 3.4856 3.01688C3.33557 2.86686 3.25129 2.66337 3.25129 2.4512C3.25129 2.23903 3.33557 2.03554 3.4856 1.88551C3.63563 1.73548 3.83911 1.6512 4.05129 1.6512H8.85129C9.06346 1.6512 9.26694 1.73548 9.41697 1.88551C9.567 2.03554 9.65129 2.23903 9.65129 2.4512V7.2512C9.65129 7.46337 9.567 7.66686 9.41697 7.81688C9.26694 7.96691 9.06346 8.0512 8.85129 8.0512C8.63911 8.0512 8.43563 7.96691 8.2856 7.81688C8.13557 7.66686 8.05129 7.46337 8.05129 7.2512V4.2976L8.04969 4.3008C7.13449 4.9888 6.01769 5.832 5.04969 6.9216C3.90569 8.208 3.04489 9.7648 3.04489 11.6752ZM20.8177 12.3232C20.8177 7.504 17.3617 4.2064 13.4465 3.4704C13.3374 3.45188 13.233 3.41182 13.1395 3.35255C13.0461 3.29328 12.9653 3.21599 12.902 3.12519C12.8388 3.03439 12.7942 2.93189 12.7709 2.82368C12.7477 2.71547 12.7462 2.60371 12.7666 2.49492C12.787 2.38614 12.8289 2.2825 12.8897 2.19006C12.9506 2.09763 13.0293 2.01824 13.1212 1.95653C13.2131 1.89482 13.3163 1.85203 13.4249 1.83065C13.5335 1.80927 13.6453 1.80973 13.7537 1.832C18.3521 2.696 22.4849 6.6 22.4849 12.3232C22.4849 14.7824 21.3665 16.7136 20.0609 18.184C19.1249 19.2368 18.0545 20.0928 17.1937 20.7472H19.8113C20.0235 20.7472 20.2269 20.8315 20.377 20.9815C20.527 21.1315 20.6113 21.335 20.6113 21.5472C20.6113 21.7594 20.527 21.9629 20.377 22.1129C20.2269 22.2629 20.0235 22.3472 19.8113 22.3472H15.0113C14.7991 22.3472 14.5956 22.2629 14.4456 22.1129C14.2956 21.9629 14.2113 21.7594 14.2113 21.5472V16.7472C14.2113 16.535 14.2956 16.3315 14.4456 16.1815C14.5956 16.0315 14.7991 15.9472 15.0113 15.9472C15.2235 15.9472 15.4269 16.0315 15.577 16.1815C15.727 16.3315 15.8113 16.535 15.8113 16.7472V19.6992H15.8145C16.7281 19.008 17.8465 18.1664 18.8129 17.0752C19.9569 15.7904 20.8177 14.2352 20.8177 12.3232Z" fill="white"/>
</g>
</svg>
