<svg xmlns="http://www.w3.org/2000/svg" width="25" height="24" viewBox="0 0 25 24" fill="none">
<g clip-path="url(#clip0_1397_28844)">
<path d="M12.6116 2C7.08157 2 2.61157 6.47 2.61157 12C2.61157 17.53 7.08157 22 12.6116 22C18.1416 22 22.6116 17.53 22.6116 12C22.6116 6.47 18.1416 2 12.6116 2ZM16.9116 16.3C16.5216 16.69 15.8916 16.69 15.5016 16.3L12.6116 13.41L9.72157 16.3C9.33157 16.69 8.70157 16.69 8.31157 16.3C7.92157 15.91 7.92157 15.28 8.31157 14.89L11.2016 12L8.31157 9.11C7.92157 8.72 7.92157 8.09 8.31157 7.7C8.70157 7.31 9.33157 7.31 9.72157 7.7L12.6116 10.59L15.5016 7.7C15.8916 7.31 16.5216 7.31 16.9116 7.7C17.3016 8.09 17.3016 8.72 16.9116 9.11L14.0216 12L16.9116 14.89C17.2916 15.27 17.2916 15.91 16.9116 16.3Z" fill="#EE5D50"/>
</g>
<defs>
<clipPath id="clip0_1397_28844">
<rect width="24" height="24" fill="white" transform="translate(0.611572)"/>
</clipPath>
</defs>
</svg>