<svg width="20" height="21" viewBox="0 0 20 21" fill="none" xmlns="http://www.w3.org/2000/svg">
<g id="fluent:data-pie-24-regular">
<path id="Vector" d="M8.54159 4.00276C8.70735 4.00276 8.86632 4.06861 8.98353 4.18582C9.10074 4.30303 9.16659 4.462 9.16659 4.62776V11.2944H15.8333C15.9843 11.2944 16.1302 11.3491 16.244 11.4484C16.3579 11.5477 16.4319 11.6848 16.4524 11.8344L16.4583 11.9194C16.4583 16.0611 13.0999 19.0028 8.95825 19.0028C6.96913 19.0028 5.06147 18.2126 3.65495 16.8061C2.24843 15.3995 1.45825 13.4919 1.45825 11.5028C1.45825 7.36109 4.39992 4.00276 8.54159 4.00276ZM7.91659 5.28359L7.74242 5.30359C4.66742 5.69526 2.70825 8.32193 2.70825 11.5028C2.70825 13.1604 3.36673 14.7501 4.53883 15.9222C5.71094 17.0943 7.30065 17.7528 8.95825 17.7528C12.1391 17.7528 14.7649 15.7928 15.1583 12.7186L15.1766 12.5444H8.54159C8.39055 12.5444 8.24463 12.4897 8.13081 12.3905C8.01699 12.2912 7.94296 12.1541 7.92242 12.0044L7.91659 11.9194V5.28359ZM11.0416 1.91943C13.0307 1.91943 14.9384 2.7096 16.3449 4.11613C17.7514 5.52265 18.5416 7.4303 18.5416 9.41943C18.5416 9.58519 18.4757 9.74416 18.3585 9.86137C18.2413 9.97858 18.0823 10.0444 17.9166 10.0444H11.0416C10.8758 10.0444 10.7169 9.97858 10.5996 9.86137C10.4824 9.74416 10.4166 9.58519 10.4166 9.41943V2.54443C10.4166 2.37867 10.4824 2.21969 10.5996 2.10248C10.7169 1.98527 10.8758 1.91943 11.0416 1.91943ZM11.6666 3.20026V8.79443H17.2599L17.2408 8.62026C17.0636 7.25008 16.4377 5.97714 15.4608 5.00021C14.4839 4.02329 13.2109 3.39739 11.8408 3.22026L11.6666 3.20026Z" fill="black"/>
</g>
</svg>
