<svg xmlns="http://www.w3.org/2000/svg" width="41" height="40" viewBox="0 0 41 40" fill="none">
<circle cx="20.6667" cy="20" r="20" fill="#BF83FF"/>
<path fill-rule="evenodd" clip-rule="evenodd" d="M22.6667 16C22.6667 18.2091 20.8759 20 18.6667 20C16.4576 20 14.6667 18.2091 14.6667 16C14.6667 13.7909 16.4576 12 18.6667 12C20.8759 12 22.6667 13.7909 22.6667 16ZM18.6667 21C14.8008 21 11.6667 23.2386 11.6667 26C11.6667 27.1046 12.5622 28 13.6667 28H23.6667C24.7713 28 25.6667 27.1046 25.6667 26C25.6667 23.2386 22.5327 21 18.6667 21ZM26.6667 14C27.219 14 27.6667 14.4477 27.6667 15V16H28.6667C29.219 16 29.6667 16.4477 29.6667 17C29.6667 17.5523 29.219 18 28.6667 18H27.6667V19C27.6667 19.5523 27.219 20 26.6667 20C26.1145 20 25.6667 19.5523 25.6667 19V18H24.6667C24.1145 18 23.6667 17.5523 23.6667 17C23.6667 16.4477 24.1145 16 24.6667 16H25.6667V15C25.6667 14.4477 26.1145 14 26.6667 14Z" fill="white"/>
</svg>