<svg xmlns="http://www.w3.org/2000/svg" width="41" height="40" viewBox="0 0 41 40" fill="none">
<circle cx="20.3335" cy="20" r="20" fill="#FF947A"/>
<path fill-rule="evenodd" clip-rule="evenodd" d="M12.3335 14C12.3335 11.7909 14.1244 10 16.3335 10H22.3335V14C22.3335 16.2091 24.1244 18 26.3335 18H28.3335V26C28.3335 28.2091 26.5426 30 24.3335 30H16.3335C14.1244 30 12.3335 28.2091 12.3335 26V14ZM16.3335 19C15.7812 19 15.3335 19.4477 15.3335 20C15.3335 20.5523 15.7812 21 16.3335 21H18.3335C18.8858 21 19.3335 20.5523 19.3335 20C19.3335 19.4477 18.8858 19 18.3335 19H16.3335ZM16.3335 23C15.7812 23 15.3335 23.4477 15.3335 24C15.3335 24.5523 15.7812 25 16.3335 25H20.3335C20.8858 25 21.3335 24.5523 21.3335 24C21.3335 23.4477 20.8858 23 20.3335 23H16.3335ZM25.0153 12.1988L24.8844 14.1629C24.8441 14.7666 25.345 15.2674 25.9487 15.2272L27.9127 15.0962C28.77 15.0391 29.1608 13.9989 28.5533 13.3913L26.7202 11.5582C26.1127 10.9507 25.0724 11.3415 25.0153 12.1988Z" fill="white"/>
</svg>