<svg width="25" height="25" viewBox="0 0 25 25" fill="none" xmlns="http://www.w3.org/2000/svg">
<path d="M7.27437 5.65652C7.33437 6.54652 7.48437 7.41652 7.72437 8.24652L6.52437 9.44652C6.11437 8.24652 5.85438 6.97652 5.76438 5.65652H7.27437ZM17.1344 17.6765C17.9844 17.9165 18.8544 18.0665 19.7344 18.1265V19.6165C18.4144 19.5265 17.1444 19.2665 15.9344 18.8665L17.1344 17.6765ZM8.23438 3.65652H4.73438C4.18437 3.65652 3.73438 4.10652 3.73438 4.65652C3.73438 14.0465 11.3444 21.6565 20.7344 21.6565C21.2844 21.6565 21.7344 21.2065 21.7344 20.6565V17.1665C21.7344 16.6165 21.2844 16.1665 20.7344 16.1665C19.4944 16.1665 18.2844 15.9665 17.1644 15.5965C17.0644 15.5565 16.9544 15.5465 16.8544 15.5465C16.5944 15.5465 16.3444 15.6465 16.1444 15.8365L13.9444 18.0365C11.1144 16.5865 8.79437 14.2765 7.35437 11.4465L9.55437 9.24652C9.83437 8.96652 9.91437 8.57652 9.80437 8.22652C9.43437 7.10652 9.23438 5.90652 9.23438 4.65652C9.23438 4.10652 8.78438 3.65652 8.23438 3.65652Z" fill="url(#paint0_linear_1385_2774)"/>
<defs>
<linearGradient id="paint0_linear_1385_2774" x1="3.73437" y1="21.6565" x2="21.7344" y2="21.6565" gradientUnits="userSpaceOnUse">
<stop stop-color="#E64422"/>
<stop offset="1" stop-color="#F47221"/>
</linearGradient>
</defs>
</svg>
