<svg width="20" height="21" viewBox="0 0 20 21" fill="none" xmlns="http://www.w3.org/2000/svg">
<g id="solar:user-outline">
<path id="Vector" fill-rule="evenodd" clip-rule="evenodd" d="M9.99997 1.50276C8.95015 1.50276 7.94333 1.9198 7.201 2.66213C6.45867 3.40446 6.04163 4.41128 6.04163 5.4611C6.04163 6.51091 6.45867 7.51773 7.201 8.26006C7.94333 9.00239 8.95015 9.41943 9.99997 9.41943C11.0498 9.41943 12.0566 9.00239 12.7989 8.26006C13.5413 7.51773 13.9583 6.51091 13.9583 5.4611C13.9583 4.41128 13.5413 3.40446 12.7989 2.66213C12.0566 1.9198 11.0498 1.50276 9.99997 1.50276ZM7.29163 5.4611C7.29163 4.7428 7.57697 4.05393 8.08488 3.54601C8.5928 3.0381 9.28167 2.75276 9.99997 2.75276C10.7183 2.75276 11.4071 3.0381 11.915 3.54601C12.423 4.05393 12.7083 4.7428 12.7083 5.4611C12.7083 6.17939 12.423 6.86826 11.915 7.37618C11.4071 7.88409 10.7183 8.16943 9.99997 8.16943C9.28167 8.16943 8.5928 7.88409 8.08488 7.37618C7.57697 6.86826 7.29163 6.17939 7.29163 5.4611ZM9.99997 10.6694C8.07247 10.6694 6.2958 11.1078 4.97996 11.8478C3.6833 12.5778 2.7083 13.6828 2.7083 15.0444V15.1294C2.70747 16.0978 2.70663 17.3128 3.77247 18.1811C4.29663 18.6078 5.0308 18.9119 6.02247 19.1119C7.0158 19.3136 8.31163 19.4194 9.99997 19.4194C11.6883 19.4194 12.9833 19.3136 13.9783 19.1119C14.97 18.9119 15.7033 18.6078 16.2283 18.1811C17.2941 17.3128 17.2925 16.0978 17.2916 15.1294V15.0444C17.2916 13.6828 16.3166 12.5778 15.0208 11.8478C13.7041 11.1078 11.9283 10.6694 9.99997 10.6694ZM3.9583 15.0444C3.9583 14.3353 4.47663 13.5653 5.59246 12.9378C6.68913 12.3211 8.2458 11.9194 10.0008 11.9194C11.7541 11.9194 13.3108 12.3211 14.4075 12.9378C15.5241 13.5653 16.0416 14.3353 16.0416 15.0444C16.0416 16.1344 16.0083 16.7478 15.4383 17.2111C15.13 17.4628 14.6133 17.7086 13.73 17.8869C12.8491 18.0653 11.645 18.1694 9.99997 18.1694C8.35497 18.1694 7.14997 18.0653 6.26997 17.8869C5.38663 17.7086 4.86997 17.4628 4.56163 17.2119C3.99163 16.7478 3.9583 16.1344 3.9583 15.0444Z" fill="black"/>
</g>
</svg>
